/* XPM */
static char *a63bc70b89d64ea1e1243700a8c895f7ZJEfwnB3BTtEG58n[] = {
/* columns rows colors chars-per-pixel */
"68 50 256 2 ",
"   c #F6F6F6",
".  c white",
"X  c #F4F3F4",
"o  c #F4F4F5",
"O  c gray96",
"+  c #3F4590",
"@  c #FDFEFD",
"#  c #F8F9F9",
"$  c #434A99",
"%  c #414792",
"&  c #3E4491",
"*  c #3F438E",
"=  c #676568",
"-  c #2D3059",
";  c #3D418E",
":  c #FBFAF9",
">  c #434993",
",  c #E8ECEB",
"<  c #CD714E",
"1  c #FDFCFC",
"2  c #33365A",
"3  c #C54535",
"4  c #0B0C15",
"5  c #424794",
"6  c #868387",
"7  c #ACABAC",
"8  c #404787",
"9  c #D94D3D",
"0  c #383C74",
"q  c #343865",
"w  c #D3CEC7",
"e  c #BABFC3",
"r  c #F2F3F3",
"t  c #726E71",
"y  c #DFE1E3",
"u  c #2A2D48",
"i  c #3D417A",
"p  c #CC6E4B",
"a  c #2A2D63",
"s  c #8F4F3A",
"d  c #282A58",
"f  c #472D2E",
"g  c #99999B",
"h  c #5A4645",
"j  c #5D5F6B",
"k  c #D1D8DB",
"l  c #4D505A",
"z  c #C4C9CB",
"x  c #D64736",
"c  c #B0AFAF",
"v  c #8A8B90",
"b  c #BA3E2F",
"n  c #757277",
"m  c #372D34",
"M  c #664E40",
"N  c #3B3E5B",
"B  c #792620",
"V  c #7F4942",
"C  c #B64236",
"Z  c #C66D4B",
"A  c #42478F",
"S  c #453338",
"D  c #2E346E",
"F  c #2C2A44",
"G  c #DBD9D6",
"H  c #3D406C",
"J  c #A3A6A7",
"K  c #543B36",
"L  c #AE6145",
"P  c #292F51",
"I  c #CFD1D2",
"U  c #B8B6B7",
"Y  c #979190",
"T  c #AAA4A7",
"R  c #343C83",
"E  c #B2392C",
"W  c #C1BDBB",
"Q  c #76757A",
"!  c #73615E",
"~  c #633E2F",
"^  c #703835",
"/  c #6C6D6E",
"(  c #9C3A30",
")  c #C44032",
"_  c #FFFFFB",
"`  c #642D2C",
"'  c #582C2C",
"]  c #D0CAC8",
"[  c #CCC3BF",
"{  c #A29F9D",
"}  c #EEEEEC",
"|  c #C1694A",
" . c #FBEADD",
".. c #F7D8BA",
"X. c #474C9C",
"o. c #EDCEB0",
"O. c gainsboro",
"+. c #AFA19B",
"@. c #353A55",
"#. c #242951",
"$. c #E6E8E8",
"%. c #D6D6D7",
"&. c #D3D4D4",
"*. c #929296",
"=. c #7C5C4F",
"-. c #F1F1F1",
";. c #AEB2B6",
":. c #EDF4F4",
">. c #5F4F4F",
",. c #897F79",
"<. c #2A2736",
"1. c #E34D3C",
"2. c #C74B3A",
"3. c #1F2636",
"4. c #543532",
"5. c #A53429",
"6. c #B3B8BE",
"7. c #AF593F",
"8. c #A54138",
"9. c #684F50",
"0. c #72332F",
"q. c #47424D",
"w. c #722E2A",
"e. c #8E8985",
"r. c #BC6041",
"t. c #322528",
"y. c #5F3C39",
"u. c #797575",
"i. c #431F20",
"p. c #FCF6EE",
"a. c #F0C7A4",
"s. c #ECE1DA",
"d. c #FBF0E7",
"f. c #61585A",
"g. c #BCB1A7",
"h. c #FBE6D1",
"j. c #9D958E",
"k. c #71696A",
"l. c #C1B7B0",
"z. c #897874",
"x. c #D2734F",
"c. c #DC7954",
"v. c #975941",
"b. c #59565C",
"n. c #30377F",
"m. c #864C37",
"M. c #816156",
"N. c #C46446",
"B. c #56413D",
"V. c #BABAB7",
"C. c #62494B",
"Z. c #575240",
"A. c #8A878C",
"S. c #636269",
"D. c #4C4852",
"F. c #3C466D",
"G. c #BE483A",
"H. c #91908E",
"J. c #37191E",
"K. c #7F7D80",
"L. c #694041",
"P. c #523F4E",
"I. c #C8CFD3",
"U. c #7F332D",
"Y. c #8C4F4E",
"T. c #847F80",
"R. c #64211E",
"E. c #8B3630",
"W. c #F5E8DD",
"Q. c #383841",
"!. c #89413E",
"~. c #F2BE96",
"^. c #E45342",
"/. c #FFF3E4",
"(. c #FDFBF3",
"). c #353534",
"_. c #A9625C",
"`. c #6A5D5B",
"'. c #9B332A",
"]. c #AC9993",
"[. c #8B7F80",
"{. c #7F7778",
"}. c #B7A89C",
"|. c #F25441",
" X c #C6B7A8",
".X c #CBAF99",
"XX c #DBC9C3",
"oX c #B7694A",
"OX c #3D4382",
"+X c #835543",
"@X c #66574D",
"#X c #46485E",
"$X c #744D3F",
"%X c #552526",
"&X c #7C7B7B",
"*X c #BCA74E",
"=X c #998B4F",
"-X c #766744",
";X c #F4F4EC",
":X c #3F5175",
">X c #E84733",
",X c #DEE4E5",
"<X c #533248",
"1X c #8F7A5D",
"2X c #D14132",
"3X c #725353",
"4X c #201E2A",
"5X c #B7A5A3",
"6X c #9A8488",
"7X c #F16D5C",
"8X c #945C4F",
"9X c #F77666",
"0X c #B7AEB0",
"qX c #E85C4D",
"wX c #F49F8A",
"eX c #D7C4B4",
"rX c #C9BEB2",
"tX c #8E696F",
"yX c #AC8984",
"uX c #714132",
"iX c #808483",
"pX c #EF5745",
"aX c #A38D8E",
"sX c #485066",
"dX c #E3B792",
"fX c #D6D3CC",
"gX c #E8C6AD",
"hX c #B78774",
"jX c #A28372",
"kX c #C79E8D",
"lX c #9B9896",
"zX c #C27756",
"xX c #443A5F",
"cX c #151935",
"vX c #B29445",
"bX c #FFE868",
"nX c #AE9849",
"mX c #E3CD58",
"MX c #7A7C81",
"NX c #3E3E89",
"BX c #5758AA",
"VX c #5055A8",
"CX c #9FAAC1",
"ZX c #A1917C",
"AX c #D8746A",
"SX c #F68E84",
"DX c #E8A5A4",
"FX c #E6B2AE",
"GX c #AA4F44",
"HX c #E88571",
"JX c #A17270",
"KX c #A1A2B8",
"LX c #FFFADF",
"PX c #CBA57E",
"IX c #FFDAC1",
"UX c #EFD0BE",
/* pixels */
"                                                                                                                                        ",
"                                                                      o r X X r r O                                                     ",
"                                                                  r   . . . . . . : r O                                                 ",
"                                                              O r .   6.v Q n 6 ;., . : r                                               ",
"                                                            O   . ;.f.Y.7.G.) b ( L.A.$.. r                                             ",
"                                              O O         o # @ MXL.AX7X_.yXyX_.x 1.'.K e . r                                           ",
"                                            o @ @ o     O   1 = V 9XqXtXw DXFXXX,.b ^.) %X;.. r                                         ",
"                                    O r o O . %.G . o   o . n Y.9X^.b z wXHXwXSXI ( x 3 3 %Xz . r                                       ",
"                                  O 1 . 1 . c = u.;.. -.. g !.7X9 |.) ].hX6.z kXaXC 1.3 G.E h o   O                                     ",
"                                o @ O.*.z . t O.;X= , . k y.qX1.1.8.V tXJX8.5.!.^ U.( x 3 2.B *.. r                                     ",
"                              O # } t U &XU g w . H.7 . / C pX9 0.Y.P.P._.GX8.C B i.w.0.3 3 b h :.                                      ",
"                              O @ &.&X. ;XH.D.V.. ] v :.y.^.9 0.C U.= {.= W [ / l S.w.5.` C 2.w.z . o                                   ",
"                                O 1 = W _ _ e.{ s.0Xk.k ^ |.E.'.!.iX5X5X+.h. .}.+.].u.V B ` 2.B J . r                                   ",
"                                o . %.S.] ] s.{.t 6 = v 9.) i.3Xw l.c CXj [ h.n KXfX+.w ! 4X( ^ k 1 O                                   ",
"                                  -.. 7 D.0Xl 7 . _ # t Q.' ~ T p.j.e :X3.l.d.Q.F.I.j. .l.~ ' ).z . o                                   ",
"                                O # , Q ] [ 7 Y w p.{ [.s.e.r.V [ +.6.l 4 k.aXt.sXe { ] y.r.z.w f.e . o                                 ",
"                                o . U v p.{ T.= q._ u.XXgXz.L s *.g.6 l 7 [ rX+.b.K.XXl.uX7.`.UX XQ . r                                 ",
"                                o . U T._ . w q.c . t 0Xo.M m z.<.{.T. X/.W.W.h..Xk.e.h =.t.M .. X6 . r                                 ",
"                                O # $.= G 0Xn J (.(.V.f./.PX/ d.).4 q...a.o.o.dXa.b.4 4.IX= hXLX,.7 . r                                 ",
"                                  r . 7 t W e @ _ , . iXb.j.6 (.g.4 4 [.a.~.~.~.jX4 4 kXh.z.}.eX= #                                     ",
"                                    o . { t T T A.%.I 9.'.R.f.d.W.ZXK 4 m >.>.m 4 M jXo...k.f.u.,X1 o                                   ",
"                                      o . $.c U K.S.f C pX|.w.c /.W...h 3.B.S 3.M ..s.a..X= &.  1 o                                     ",
"                                        r : . . 1 &.! E 9 9 2X4.] d.p.j.9.6X[.! Y  .o.dXb.y . -.O                                       ",
"                                          O o r o . :.>.E 9 9 ) 4.Y W.fXi.B B i.eXgX1XS ` g :.. r                                       ",
"                                                  r 1 , C.E x x <Xd q.G rX8X8X.Xg.m a D E.5.C.I.. r                                     ",
"                                                    r @ ,XL.>XE.R BX0 m 6X}.].z.0.` % VX2 3 2X' e . r                                   ",
"                                                      # , V >X<X$ ; $ ' R.J.J.R.b U.R NXR f 8.x ' k @ o                                 ",
"                                                    r . 6.J.( q sX-XH P 0 i i 0 q F 2 =X1X<.` 9 E ! @ O                                 ",
"                                                    r . H.d - #.*XmXZ.- $ $ $ $ X.D Z.bXnX).t.3 2.^ y 1 O                               ",
"                                                    X . / R 8 #.=X*XZ.d 5 % % % $ 2 l vX-X@.<.G.b 3X#                                   ",
"                                                    o _ j R > P @.D.u D $ % & & $ q q :XF.P F 5.^ I.. o                                 ",
"                                                    o . S.n.$ 8 q a 0 5 5 & ; & & > q 2 u 2 F 9.k . r                                   ",
"                                                    r . Q D X.> $ $ $ A & & & & & + $ A H 2 @., . r                                     ",
"                                                    r . J #.X.+ * + % A * + + + % % > > N - j : r                                       ",
"                                                    O @ G u & + + + + + + % % % > > > 8 N - 6 . r                                       ",
"                                                    r . V.d 5 * & * + * + OXi i 0 0 > 8 N - W . X                                       ",
"                                                    r . K.a $ * ; * + * H - F F u 0 5 i 2 #X} # O                                       ",
"                                                    O : l n.% * ; ; + OX2 Q.u 2 A % A F.#.v . r                                         ",
"                                                  O # } @.; * * * ; & H u = q i A + 8 2 N y # o                                         ",
"                                                  -.. T a X.% * ; ; 8 P #XlXa A A A 8 P N $.. : o                                       ",
"                                                r . G 4Xd - D ; 5 % H 3.A.Q n.$ & + 2 S S h 6 y . o                                     ",
"                                              o . e h s L L s S - - <.cXJ j d xXP.S s < x.| s B.k 1 o                                   ",
"                                            O 1 O.K N.c.< x.c.| 7.m.K f 7 M.7.r.Z p p p Z Z zXm.n . r                                   ",
"                                            r . J s c.< < x.< < < L $XuXv V N.r.N.p p p Z oX+X~ 6 . r                                   ",
"                                            O @ %.y.| < Z | oXL m.~ f t., = ~ M.=.+Xv.v.v.$XS m y : O                                   ",
"                                              X . / 4.=.M.=.M M `.>.@Xg . I ,.,.g e.! @XM B.B.*.. r                                     ",
"                                                  o U lXY Y T I O }   . o @ .   @ 1 , O.&.I y @                                         ",
"                                                O   . . . . . .   #   X   o X   o o # 1 @ . 1 O                                         ",
"                                                    r r X r r o   O                 O O o o O                                           ",
"                                                                                                                                        "
};
