/* XPM */
static char *_1a8e8ceb01b4178e5ac18c24a061cba4cbZNItVKow9VtyM[] = {
/* columns rows colors chars-per-pixel */
"85 50 216 2 ",
"   c #440700",
".  c #410A00",
"X  c #4B0B00",
"o  c #520C00",
"O  c #590E00",
"+  c #551300",
"@  c #5B1500",
"#  c #531800",
"$  c #5C1B01",
"%  c #5D1E0C",
"&  c #631600",
"*  c #6A1500",
"=  c #641B00",
"-  c #6C1C00",
";  c #701700",
":  c #721D00",
">  c #7B1E00",
",  c #5E2101",
"<  c #5E200B",
"1  c #642202",
"2  c #6D2201",
"3  c #672B07",
"4  c #6D2A04",
"5  c #64260C",
"6  c #6A240A",
"7  c #6D2B0C",
"8  c #742401",
"9  c #7C2500",
"0  c #752A03",
"q  c #7C2B03",
"w  c #742508",
"e  c #782709",
"r  c #752C0B",
"t  c #7C2D0A",
"y  c #6A300B",
"u  c #753007",
"i  c #7E3105",
"p  c #75310D",
"a  c #7D320C",
"s  c #652A11",
"d  c #6B2D14",
"f  c #752E12",
"g  c #792E12",
"h  c #6F3317",
"j  c #753211",
"k  c #7C3313",
"l  c #7C3A14",
"z  c #7C351B",
"x  c #7C391A",
"c  c #74361B",
"v  c #7D3D22",
"b  c #851F00",
"n  c #822400",
"m  c #882500",
"M  c #832B02",
"N  c #8A2C02",
"B  c #832E0A",
"V  c #892D09",
"C  c #922E02",
"Z  c #9A2D01",
"A  c #912F0A",
"S  c #843104",
"D  c #8B3204",
"F  c #8A3806",
"G  c #84330B",
"H  c #8A340B",
"J  c #85390C",
"K  c #8D3B0D",
"L  c #953403",
"P  c #9C3503",
"I  c #963905",
"U  c #9C3A05",
"Y  c #93350A",
"T  c #9D360A",
"R  c #943A0D",
"E  c #9C3C0B",
"W  c #8A2F10",
"Q  c #833513",
"!  c #8A3511",
"~  c #843A13",
"^  c #8C3B13",
"/  c #843619",
"(  c #833A19",
")  c #8C3D1B",
"_  c #903611",
"`  c #943D14",
"'  c #9B3D12",
"]  c #933E19",
"[  c #9A3E19",
"{  c #A22E00",
"}  c #A33501",
"|  c #A93502",
" . c #A43A04",
".. c #AA3C03",
"X. c #A23609",
"o. c #A33C0B",
"O. c #AA3D0B",
"+. c #B13D04",
"@. c #B23E0C",
"#. c #A33E12",
"$. c #AB3E12",
"%. c #A23E1A",
"&. c #823A22",
"*. c #8E3F21",
"=. c #813D28",
"-. c #943F20",
";. c #86400F",
":. c #8B410E",
">. c #9C410C",
",. c #94410F",
"<. c #8C4214",
"1. c #8C431C",
"2. c #84401D",
"3. c #954214",
"4. c #9C4215",
"5. c #9E4815",
"6. c #94431C",
"7. c #9C441B",
"8. c #95491D",
"9. c #9C4A1D",
"0. c #A34007",
"q. c #AC4106",
"w. c #A4410D",
"e. c #AB420C",
"r. c #B14107",
"t. c #B1430D",
"y. c #B6480D",
"u. c #A44313",
"i. c #AB4413",
"p. c #A64915",
"a. c #AB4915",
"s. c #A3461B",
"d. c #AA461A",
"f. c #A44A1D",
"g. c #AB4B1B",
"h. c #B24512",
"j. c #B14A15",
"k. c #BA4910",
"l. c #B1471B",
"z. c #B24C1B",
"x. c #B94919",
"c. c #AD511D",
"v. c #B3511D",
"b. c #BB541B",
"n. c #844425",
"m. c #8D4323",
"M. c #8C4924",
"N. c #8E4329",
"B. c #8C492C",
"V. c #944523",
"C. c #9B4621",
"Z. c #944A24",
"A. c #9C4A23",
"S. c #95472B",
"D. c #944B2B",
"F. c #9C4E2A",
"G. c #9C512C",
"H. c #864C38",
"J. c #8D4D31",
"K. c #944E31",
"L. c #994F32",
"P. c #9E5534",
"I. c #9B5935",
"U. c #9C5A3D",
"Y. c #955033",
"T. c #A34522",
"R. c #A44B23",
"E. c #AB4C22",
"W. c #A34E2A",
"Q. c #AC4E29",
"!. c #B24E24",
"~. c #A65225",
"^. c #AC5224",
"/. c #A5532C",
"(. c #AB532B",
"). c #AC5B2C",
"_. c #B35323",
"`. c #BA5424",
"'. c #BF5B27",
"]. c #B3542A",
"[. c #BB5428",
"{. c #B45A2D",
"}. c #B95B2B",
"|. c #B35823",
" X c #A14E30",
".X c #A45532",
"XX c #AA5531",
"oX c #A55A32",
"OX c #AC5A34",
"+X c #A75C3C",
"@X c #AB5E3C",
"#X c #B35931",
"$X c #BB5A33",
"%X c #B25E3C",
"&X c #AC623B",
"*X c #B26031",
"=X c #BC6033",
"-X c #BA643C",
";X c #C6561E",
":X c #C2561B",
">X c #C8561E",
",X c #CB561A",
"<X c #C3591B",
"1X c #CD591C",
"2X c #C35622",
"3X c #CA5722",
"4X c #C35A23",
"5X c #CA5C24",
"6X c #C95C29",
"7X c #D05C21",
"8X c #C15E35",
"9X c #C06023",
"0X c #C2632D",
"qX c #D2602C",
"wX c #C46332",
"eX c #CA6A3A",
/* pixels */
">X;X3X;X<X<X<X6XS OXXX(.^._.z._.j.|.XXJ z.3X3X>X;X4X/.! eX:X7X1X5X4X6Xb.D wX2X;X<X9Xg.R }.c.E._.^.^.^.5.R wX2X>X,X,X,Xb.=XR z.qX3X6X4X0XR.! 8Xz.^.^.Q.].].^.Z.G wX:X:X4X2X",
"} } | P P  . .U 9 6.9 9 M m n n n 9 t & i.} } } | P G t _. .+.....e.e.P D c.Z } P I N B R 9 n n m n M 8 9 g.P } { } }  .' : a.O.O.....u.^ G E n M M n n n M 0 0 z.Z P P Z ",
"..P } O.e.P  .o.9 A.M B N n N N N G l - s.O.O.} } e.G 9 `.e...k.t.o.a.E S f.T O. .E N H R M V V m M H 8 F ^.I } o. ...U ` 9 _.h.t.t.e.u.! ^ ' n N N V V m S 4 t l.} e.o. .",
" . .P U I L o.E 8 A.9 M S 9 M q 0 t f - f.E L o. .o.H S z.e.O.o.O.i.a.I F ~.Y #.E E B H K 9 B 9 M M G - S R.L o.Y I o.L 3.9 s.p.O.a.e.g.^ ! [ n M M B q M G 2 r z.P P L  .",
"o.u.4.7.3.4.u.u.9 F.B B G G Q k l j z = /.7.' ' u.E H ^ }.p.E.E.d.d.s.3.J XX` [ #.7.G ) 8.0 G / B G a 2 J (.` 7.7.7.' ' A.9 (.E.f.a.p.f.) Q 7.9 M G G a G G 7 k $XE 5.>.w.",
"n n 9 9 9 n n m * M : : - - = = & - 2 O M H 9 M M M 8 - R N B B A m D M = J 8 9 n N : - q - 2 = - - - & : H > 9 t 8 M M 9 & ! H M N D N 8 0 M : - 2 @ - : - = & V n 9 0 m ",
"w.p.s.9 H 7.u.#.4.s.' ' 3.Z.j r A.7.7.C.4.' - 6.3.3.6.6.] ] N.- [ u.u.4.3.3.8 C.[ T.7.[ 5.5.) 2 7.' 7.3.3.u.' T.g t 7.` 3.] 6.] 8 3.' u.6.6.4.' 3.6.2 1.[ 7.C.6.s.7.i q 7.",
"j.a.^.V R.f.u.#.u.#.i.p.u.f.Q 1.!.o.#.#.u.u.q G.G H G ! G ! z w $Xj.g.g.c.5.S OX' u.u.g.E s.6.t ].u.u.4.u.w.u.R.Q N.[ N H H ! G 8 #X' u.s.4.d.u.4.9.0 &XE.g.E.E.Q.Q.<.<.7.",
"q.o.a.m u.u.P }  . .} P P E 9 R i.} ..} } L 9 6.8 G 9 9 9 G w - _. .e.e.e.U 9 ~.L X.| } X.E K 9 z.P P  .}  .P ' q ) D m M N M 9 8 ~.L X.P P } P E Y 0 ~.u.O.t.O.$.s.S K R ",
"q.e.a.m s.u.I  .} } .. . .o.9 ` O.} }  ...I 0 Z.0 G M M 9 q r 8 }.o.a.o.e.0.N ^.I O.| | } U K q z.} o.P }  . .E q ) R m N 9 m M 0 /.E O. . .}  .o.E 0 ).w.O.+.@.i.f.S K R ",
"e.a.f.M R.4.E E o.o.o. . .u.M [ g.o.}  .o.R 0 F.t 0 M M G t r 2 {.u.s.d.a.o.M ~.E E O.O.#.E <.0 _.P w.E 0.o.U u.t ) ! 9 G t B q 2 oXR E o. .O.P #.' 9 OXs.l.e.h.d.f.H K ` ",
"E R ] 0 ] _ H D N Y N C C L 9 H [ N L C D S 8 ) 0 8 8 9 8 t 2 = A.` ] 4.E L 9 9.D N Z C Y B G 2 7.N D D D I N _ w k t 2 4 4 9 : - F.V Y L C L D L V : C._ E I E E [ q J G ",
"H G k t G Q G 9 * H N D N N n G t - D N D S t G q B B 0 = k 0 0 a G Q - n D M H S D C N : 0 p t ! B G - 0 H B B r k k p $ r B M q G V H N n * H m V q ^ G : B V V G q a G ",
"7.6.m.S.) V.V.G ] -X(.{.]._.#XOXZ.( {.s.g.f.^.f.E.(.R.A.Q P.1.Z.6.1.S.w (.E.(.R.f.^.g.].G G.V.V.Z.*.Z.t F.6.7.6.V.Z.V.D.d U.#X].].(.(.(.].f.J *XE.E.R.R./.a F.6.6.6.6.6.6.",
"n 9 8 t 9 9 q - H (.R 3.o.o.u.4.^ G f.L P P U P P P Y H t V.0 0 0 8 t * R.E T P I I P ' 2 Z.q 9 e 0 t = Z.9 9 n M 9 9 q $ G.p.O. .a.E >.u.I S 9.I X.P L 3.2 V.0 9 9 0 9 0 ",
"N V q M B M S 8 K ^.u.p.i.e.e.p.H H g.}  . .}  .} } O.Y G V.0 S q S t : f.o.X.O.U L o.E 8 A.B N t Q t - A.M N N N m S i = /.w.+.r.e.w.w.i.E M ~.I O.X.E 5.8 A.q M M M M M ",
"N V M M N 9 S 8 R g.u.u.o.O.r.e.K H e.} }  .}  . ...} L G ) 9 S 9 M q * E.o.X. .I U  .E 9 V.B m M G t 8 9.q M m m m q a = /.0.q.q.e.e.w.i.P N ^.L U o.U ' 9 7.9 9 0 G M 9 ",
"B B S 9 9 M G - R ^.u.d.f.s.e.a.K H v.P u.' u.U  .I o.D t L.9 M q q G - ].[ E E >.U P ' 8 L.S M M 0 Q = A.q S N B M G a & .Xg.e.w.u.u.u.a.E H R.[ ' E R 3.9 7.G G a 0 q q ",
"6 + = 2 : : 2 = 8 G q t 2 0 9 N 0 2 V : & w 8 9 9 9 9 r < % - - 2 = 1 = = w 9 9 9 > n 9 $ % - - 2 - 6 & u 2 @ = 8 - - 2 $ f - q 0 q 0 0 M 8 2 k @ 0 9 9 q & t 2 O 2 = 2 - ",
"U.k G.oX(.W.W.XX/.W./..Xl V.OX(.XXXX~./.j U.m.F.V.F.Z.Y.H.d &XW..X.XG.P.t @X~.(.(._.].XXU.h @XW.~./. X.XF.oXl S.%XXX/.OX+XF.k P.Z.Z.D.A.A.A.B.B.f +XR.(.(./..XF.t @XOXOXXX",
"3.8 5.E P X.T T E L E 4.8 3.^.E u.w.w.,.4 M.0 q 9 9 q 0 7 1 ^.L L ' R D N ].>.w.O.h...p.) 0 _.P E I T E I 3.0 V.E.o.u.u.u._ t m.0 q M M n m t 0 8 (.P  .P o.E Y 9 ].4.u.u.",
"3.9 g.o.} O.| } }  .U E M s.z.e.e.q.e.>.i V.0 M N m M t 0 q v.P  .} U L L |.0.e.t.@.+.h.K F z.}  .}  . . .>.0 W.l.O.e.o.e.E G V.q B N N N N V 9 M _.} } ..} P I N |.o.e.e.",
"3.9 a. .} | }  .}  . .E 9 4.p.e.O.e.q.E q Z.8 V N N 9 J 8 8 j.} o.P o.L n v.o.e.i.O.@.i.R N a.} }  .} ..} ..8 7.h.+.q...y.P M 6.0 M 9 M m m B 9 8 E.P } O.X. .I m v.o.e.e.",
"A.9 E.u.#.u.E u.w.o.o.s.m R.^.s.d.a.g.4.H A.9 ! B B J G 0 q _.o.o.u.u.L L $Xu.g.f.f.d.g.5.F ].I o.u.o.o.o.u.q W.`.O.a.g.i.E ^ V.q G a G G M G t 9 {.E E E u.w.I N }.p.a.w.",
"r & t q 0 0 8 9 9 n 9 M * q G q a 0 M 0 & t & = = 1 $ 1 $ @ ^ : 9 0 8 8 : ! V 0 k j t G r = ) 8 0 t : 9 9 0 @ g V m t r G 9 = j = - $ $ 1 = 1 @ @ ~ 8 8 0 0 8 9 - a t q q ",
"N.N.V.) M.p p Z.3.s.s.f.C.A.C.A.1.2 R.f.A.C.C.S.6 B.M.1.M.Z.6.C.V.2 6.7.T.T.[ G.1 n.m.) 6.V.m.1.M.6 S.V.] A.D.Z.7.T.x 7 Z.7.F.V.9.8.7 n.M.M.n.D.D.1.1.6.2 D.A.5.6.F.V.C.A.",
"W V H H ^ 2 8.*Xp.a.a.i.z.d.a.E.^ ^ z.O.O.i.#.s.9 OX3.>.4.s.#.d.R.9 {.g.l.!.g.f.u I.! H D D M J ~ - #Xs.o.E w.u.O.i.! ) _.I w.o.w.4.0 F.t G G H G M G ) - OXE.g.g.g.a.g.l.",
"N n N N 0 & 9.p.e...e.e.O.O.t.a.H R j.{ | } { o.9 ^.I  . .P O.P R : c.0.O.$.e.E 0 V.8 m N n D M 0 8 E.I e.P P } |  .M H a.} } } } I 9 F.9 M H 9 n N m 9 - (.#.O.O.O.e.O...",
"n N N N F - 5.g.0...q.q...t.e.e.H D a.} } } ..U n s.U  .}  . .P E > v.e.h.e.e.i.i V.B N N N N 8 t 2 E.I o.P ..} ..o.q H p.P }  .} E : A.B M N V m N N N ; XXd.i.e.e.t.t.O.",
"q H N M J = ] (.p.a.a.w.i.l.e.g.^ ) g.E P o.w.E 0 /.R w.o.o.o.>.[ 9 }.w.g.g.w.u.q D.q H N S G a p = #X' ' E o. . .4.G 1.^.L o.o.o.u.q F.t B B G G M H H * OXs.s.g.u.w.i.a.",
"3 1 2 2 6 $ z V.^ H ^ J ^ ` K 6.j 7 ) G ^ M S ~ = N.G H H B S M Q = Z.! ) ! _ 1.6 =.6 4 4 1 6 5 s $ -.V J ! D D N ! 3 3 ) H H B S t 1 x 4 7 7 1 4 2 2 2 @ D.) 6.K ] K _ [ ",
"l p ! G l g / / t - ~ ~ Q G ~ G l z / Q & / ! G k Q ) : M H H H ) t ^ ^ 0 0 K G Q z &.= 4 l x c c j ) ! - 0 D L H G p ( ! G * ! H H a l l = 4 ( Q G J J 0 ~ ~ 2 0 ! J J H ",
"|.v.b.b._.].z.}.C.) E.R V.6.` 4.[ 7.] ` B %Xf.g.g.g.E.N _.[._._._.v.b.'.S ^.z.h.g.R.XXt ~.3.6.6.6.6._ 7.8 OXl.k.h.j.g.g.z.u.D -Xz.v._.^.OXG ].!.z.j.j.a.v.p.].M 9.9.` ' ' ",
"........ .e...w.H ! ' n 8 q n n n m M 9 : W.L P } } E > i.i.O.e.o.e.....M s. .} P I ` 9 ' N M 9 M M M M & A. .| | } P P  .L 9 ].} e.o.w.5.9 u.} { | } P P P ' 9 5.M n N n ",
"e.O.q.e.o.a.e.a.K ! ' m q M N N B M S 0 q (.L o. .P u.n z.i.u.w.i.e.e.i.V 7. ...X.E ' M s.N M M M M N M = F. .} P o.P  .o.L S (.o.t.o.u.f.M g.o. ... . .} U E n f.S M m N ",
"i.i.u.a.p.u.w.p.^ G ] 9 G 0 B M B 9 q 8 0 /.K E E Y 6.8 E.s.s.u.s.w.u.f.0 V.#. .o.E [ 9 T.9 B t i i q a = G.E U E E I E E D S (.u.i.u.4.W.9 R.E E U E I w.E [ 9 6.G q i M ",
"s.T.C.7.f.u.>.5.~ ~ ) 8 q t t t r a 0 2 r .X^ K ` ^ 1.2 Z.A.A.9.7.7.4.A.j K.7.Y ' ` ] 9 C.a f j r u r p , D.] [ 6.) _ ' _ G k +X6.7.s.7.A.0 A.3.^ 3.] _ ' R 7.8 V.p j p r ",
"n B w = n n N M 0 0 8 : 8 8 @ 2 2 0 2 2 - 8 - 9 9 9 0 = t B 2 2 M M 9 t 5 1 8 n n m n : q 0 + $ 2 - 8 - = r 9 9 & 0 n n 9 8 2 r : M n M q - a 0 q 8 - M 9 n n : B - , # 0 ",
"s.A.) G ].z.v.v._.^.(.{._.^.G XXE._.E.].].Y 4._.l.z.^.^.Q.E.H [ R.7.4.A.K.r 7._.a.v.g.E.E.(.Q F.{._.[._._._.[.!.M (.z.x.z.v.E.H 7.f.4.s.7.9.A.8.A.S [ #X_.`._.[.!.].<.<.(.",
"M 9 2 0 }.O...e.w.o.s.E 0.u.9 (.L o.P L %.b ' w.} | I E P o.n [ D 9 m 9 k & f.o.P  .} X.I 4.8 6.a.O.O.e.e.o.$.#.M E.P } } P u.9 [ G m n m 9 0 0 i - 7.E.o.i.o.O.$.d.S :.L ",
"M H 4 0 _...h.O.e.e.i.u.e.u.M R.E o.U I s.n 4.p.}  .U I  .E M 6.H m N M p - 7.u.U O.}  .P s.9 C.z.O.h.O.e.e.$.d.q (.T O.o.P u.n 6.J M V m M S q J - 7.!.o.i.e.e.$.g.i :.R ",
"q 0 1 0 ].O.e.a.e.O.u.u.w.>.9 /.D E E E 7.9 3.4.P P o.E U E 9 6.! 9 M 9 Q = 7.' E E  . .P ' 8 7.d.$.$.$.o.i.$.[ 0 /.H T I E 4.9 V.k 0 q B M q 0 a = [ Q.u.p.w.o.i.f.a ;._ ",
"J a y j #Xg.d.f.g.d.T.R.s.7.k .X6.4.4.3.C.q C.f.4.E E E E s.a Z.) t B a x 1 F.A.7.' #.o.' R.B W.^.g.d.z.p.g.E.7.i oX6.7.>.>.4.q Z.( l k Q G t k ~ 8 6.(.T.R.g.s.s.W.~ <.] ",
"& = $ = H m m V N N N V N 9 - Q 8 : 9 9 9 * 9 m 9 M n n 9 M - 8 w & - 2 = @ 0 t 8 9 n n n 9 * 8 H > N N m M m M = l 0 8 M 9 9 * 8 2 @ - - * * - = & 9 H 8 9 M M M M 2 0 8 ",
"g.f.A.W.E.D H 5.4.u.7.4.4.5.) A.Q G g.u.f.5.u.s.8 5.s.g.p.p.f.W.A.G 6.6.V.Z.Z.A.8 7.u.l.p.s.s.R.7.9 7.[ 3.5.7.f.9.Z.k p f.u.v.f.R.A.0 A.7.f.f.s.R.s.u.s.9 6.7.f.7.A.1.8.7.",
"i.i.u.f.E.H K 3.M D N N D D H J 0 a _.U E u.o.u.9 ).E.E.a.p.a.s.~.B R.D H G q 9 8 (.o.e.o.E E ' 7.0 W.G G S N M S a 7 ( }.a.a.u.g.E.9 ~.4.u.u.#.#.u.o.p.9 A.G M M M q G G ",
"@.h.o.E f.H <.J 0 q M M 9 9 B B 2 Q !.P P P } O.9 (.7.#.u.e.O.#.7.8 7.9 M 9 M G 8 (.L P P E E E ^ 8 V.0 9 M N m m G 1 / !. .$.i.O.p.n ^.L P T T X.X.P E 8 Z.q 9 M M m N B ",
"O.i.w.u.R.q 1.~ 0 q 0 q q 0 B t 1 z s. .o.U } o.8 /.T.%.p.i.o.d.A.t 7.q M t q 0 - .XR E E E L ' ) r V.t t q 9 M M J $ &._.O.#.u.u.u.M ~.E o.E T T T E R 0 D.t a t q M M M ",
"g.f.f.A.F.) m.2.j k k k k k p k s v W.4.3.4.[ 7.r P.W.f.f.f.f.R.D.k Z.a k k k k 7 P.6.` 3.3.` 6.m.p D.r ~ p k k a j s n./.f.R.R.f.A.k P.3.4.` 3.' 7.R 8.r J.k l k k k k k ",
": : - - 2 @ $ @ + + + + + + + + . + 0 * * - * - X 7 - : : - : - 4 + 4 o + + + +   7 & * - - * = = X 4 o @ + + + + + . $ 0 - - : : - o 7 & - * - * - * - X 5 o + + + + + + "
};
